name GIL08_fast1.mot
datacolumns 153
datarows 4
range 0.77500004 0.80000001
endheader

                time	           pelvis_tx	           pelvis_ty	           pelvis_tz	         pelvis_tilt	         pelvis_list	     pelvis_rotation	       hip_flexion_r	     hip_adduction_r	      hip_rotation_r	        knee_angle_r	       ankle_angle_r	    subtalar_angle_r	         mtp_angle_r	       hip_flexion_l	     hip_adduction_l	      hip_rotation_l	        knee_angle_l	       ankle_angle_l	    subtalar_angle_l	         mtp_angle_l	    lumbar_extension	      lumbar_bending	     lumbar_rotation	     ground_force_vx	     ground_force_vy	     ground_force_vz	     ground_force_px	     ground_force_py	     ground_force_pz	     ground_force_vx	     ground_force_vy	     ground_force_vz	     ground_force_px	     ground_force_py	     ground_force_pz	     ground_torque_x	     ground_torque_y	     ground_torque_z	     ground_torque_x	     ground_torque_y	     ground_torque_z	    ground_marker_px	    ground_marker_py	    ground_marker_pz	    ground_marker_px	    ground_marker_py	    ground_marker_pz	    ground_marker_px	    ground_marker_py	    ground_marker_pz	    ground_marker_px	    ground_marker_py	    ground_marker_pz	    ground_marker_px	    ground_marker_py	    ground_marker_pz	    ground_marker_px	    ground_marker_py	    ground_marker_pz	    ground_marker_px	    ground_marker_py	    ground_marker_pz	    ground_marker_px	    ground_marker_py	    ground_marker_pz	    ground_marker_px	    ground_marker_py	    ground_marker_pz	    ground_marker_px	    ground_marker_py	    ground_marker_pz	    ground_marker_px	    ground_marker_py	    ground_marker_pz	    ground_marker_px	    ground_marker_py	    ground_marker_pz	    ground_marker_px	    ground_marker_py	    ground_marker_pz	    ground_marker_px	    ground_marker_py	    ground_marker_pz	    ground_marker_px	    ground_marker_py	    ground_marker_pz	    ground_marker_px	    ground_marker_py	    ground_marker_pz	    ground_marker_px	    ground_marker_py	    ground_marker_pz	    ground_marker_px	    ground_marker_py	    ground_marker_pz	    ground_marker_px	    ground_marker_py	    ground_marker_pz	    ground_marker_px	    ground_marker_py	    ground_marker_pz	    ground_marker_px	    ground_marker_py	    ground_marker_pz	    ground_marker_px	    ground_marker_py	    ground_marker_pz	    ground_marker_px	    ground_marker_py	    ground_marker_pz	    ground_marker_px	    ground_marker_py	    ground_marker_pz	    ground_marker_px	    ground_marker_py	    ground_marker_pz	    ground_marker_px	    ground_marker_py	    ground_marker_pz	    ground_marker_px	    ground_marker_py	    ground_marker_pz	    ground_marker_px	    ground_marker_py	    ground_marker_pz	    ground_marker_px	    ground_marker_py	    ground_marker_pz	    ground_marker_px	    ground_marker_py	    ground_marker_pz	    ground_marker_px	    ground_marker_py	    ground_marker_pz	    ground_marker_px	    ground_marker_py	    ground_marker_pz	    ground_marker_px	    ground_marker_py	    ground_marker_pz	    ground_marker_px	    ground_marker_py	    ground_marker_pz	    ground_marker_px	    ground_marker_py	    ground_marker_pz	    ground_marker_px	    ground_marker_py	    ground_marker_pz	    ground_marker_px	    ground_marker_py	    ground_marker_pz	
          0.77500004	          1.61619592	          0.97827196	         -0.24391094	          0.00007057	         -1.50131798	          4.25815105	          0.20704269	          1.27746236	          2.27686405	        -14.49139500	         10.61620140	          0.00000000	          0.00000000	         20.32199478	         -2.88441014	         -3.46386099	        -55.35275269	          7.90977669	          0.00000000	          0.00000000	        -17.88832283	          4.39926815	         -3.13692451	        -11.50857842	        467.54282717	        -19.38272250	          1.55913745	          0.00000000	         -0.19183717	          0.00000000	          0.00000000	          0.00000000	          0.85752014	          0.00000000	         -0.29664429	          0.00000000	          0.81516968	          0.00000000	          0.00000000	          0.00000000	          0.00000000	          1.53314102	          0.89751863	         -0.24062908	          1.53453195	          0.88852537	         -0.18315458	          1.52621305	          0.88744700	         -0.28939390	          1.53505790	          0.47994727	         -0.18818630	          1.67163134	          0.48804024	         -0.31823146	          1.43024743	          0.07445683	         -0.19173749	          1.43355441	          0.14759220	         -0.29661313	          1.61619592	          0.97827196	         -0.24391094	          1.62416577	          0.97930509	         -0.14212798	          1.60822594	          0.97723877	         -0.34569389	          1.42425907	          1.02104163	         -0.19885390	          1.41659677	          1.01887286	         -0.28345978	          1.54205823	          0.47922868	         -0.12910393	          1.66260636	          0.48900008	         -0.37703523	          1.51919508	          0.49292079	         -0.24763562	          1.68297887	          0.48108450	         -0.26589075	          1.42731106	          0.07488404	         -0.15385352	          1.42529857	          0.15092185	         -0.33509696	          1.43162310	          0.07814945	         -0.22327270	          1.44494462	          0.15770440	         -0.26870048	          1.49888027	          1.46844316	         -0.23506184	          1.59521079	          1.39345312	         -0.15548544	          1.59478831	          1.40068722	         -0.31108561	          1.58267522	          1.39865768	         -0.23714454	          1.61887586	          1.19755459	         -0.25334480	          1.57178211	          0.57774460	         -0.04571219	          1.77697575	          0.64467257	         -0.35799947	          1.59365237	          0.63880706	         -0.11432195	          1.68190205	          0.67712194	         -0.38080981	          1.58667171	          0.55775750	         -0.14111000	          1.70007527	          0.59184498	         -0.37389684	          1.46050298	          0.14307925	         -0.08548202	          1.57781100	          0.18502235	         -0.31247181	          1.45655620	          0.20331211	         -0.14490201	          1.55122650	          0.26315430	         -0.31553182	          1.55011070	          0.04144149	         -0.19424796	          1.52724290	          0.07451563	         -0.30287203	
          0.78333336	          1.62866735	          0.97787112	         -0.24336381	         -0.09202576	         -1.21978354	          3.80580497	         -0.82034397	          1.05690956	          2.44573855	        -13.92155933	         10.85017586	          0.00000000	          0.00000000	         21.46096039	         -2.64245296	         -3.20481706	        -53.86237717	          8.47632790	          0.00000000	          0.00000000	        -17.91880417	          4.02712011	         -2.71918583	         -8.23669356	        474.10248784	        -19.16032509	          1.56118384	          0.00000000	         -0.19230280	          0.00000000	          0.00000000	          0.00000000	          0.85856927	          0.00000000	         -0.29658282	          0.00000000	          0.96002271	          0.00000000	          0.00000000	          0.00000000	          0.00000000	          1.54544199	          0.89719474	         -0.24082392	          1.54634905	          0.88805073	         -0.18360800	          1.53895831	          0.88731909	         -0.28991884	          1.53914750	          0.47961563	         -0.18785033	          1.69220245	          0.49047697	         -0.31754318	          1.43066645	          0.07511548	         -0.19180097	          1.46992409	          0.13968833	         -0.29573047	          1.62866735	          0.97787112	         -0.24336381	          1.63575470	          0.97857267	         -0.14141741	          1.62158000	          0.97716957	         -0.34531021	          1.43647408	          1.02089024	         -0.19981433	          1.42942095	          1.01876688	         -0.28441629	          1.54578412	          0.47888449	         -0.12872614	          1.68400156	          0.49141192	         -0.37646788	          1.52370167	          0.49289060	         -0.24704123	          1.70245409	          0.48415899	         -0.26528347	          1.42763913	          0.07555743	         -0.15392433	          1.46137488	          0.14271498	         -0.33417523	          1.43192148	          0.07877193	         -0.22332992	          1.48001909	          0.15043935	         -0.26772124	          1.51225102	          1.46821463	         -0.23510371	          1.60854113	          1.39314556	         -0.15552309	          1.60810399	          1.40024853	         -0.31106833	          1.59599948	          1.39829636	         -0.23715419	          1.63195193	          1.19713569	         -0.25319335	          1.57694292	          0.57734150	         -0.04512522	          1.79472208	          0.64983195	         -0.35535377	          1.59968960	          0.63805628	         -0.11368006	          1.69929504	          0.68037373	         -0.38011670	          1.59174800	          0.55690509	         -0.14046472	          1.71929371	          0.59523416	         -0.37285307	          1.46127307	          0.14341806	         -0.08547581	          1.61188841	          0.18379354	         -0.31201649	          1.45793283	          0.20368631	         -0.14490037	          1.58203244	          0.26076356	         -0.31510049	          1.55032218	          0.04150973	         -0.19418211	          1.56722224	          0.07206593	         -0.30213875	
          0.79166669	          1.64115763	          0.97733736	         -0.24297902	         -0.16702938	         -0.95673901	          3.33560824	         -1.88354683	          0.81722379	          2.75746560	        -13.30818748	         11.04907990	          0.00000000	          0.00000000	         22.50748062	         -2.43425250	         -2.81516790	        -52.18614578	          8.95665932	          0.00000000	          0.00000000	        -18.02538300	          3.70900440	         -2.36040306	         -4.42455402	        481.40575843	        -19.27317435	          1.56256885	          0.00000000	         -0.19264465	          0.00000000	          0.00000000	          0.00000000	          0.85989038	          0.00000000	         -0.29651794	          0.00000000	          1.09451807	          0.00000000	          0.00000000	          0.00000000	          0.00000000	          1.55769920	          0.89666462	         -0.24099234	          1.55820310	          0.88744843	         -0.18421423	          1.55176723	          0.88701874	         -0.29058880	          1.54311681	          0.47930938	         -0.18748903	          1.71225822	          0.49258766	         -0.31685966	          1.43109763	          0.07586281	         -0.19186671	          1.50680745	          0.13186479	         -0.29503787	          1.64115763	          0.97733736	         -0.24297902	          1.64733708	          0.97774988	         -0.14084224	          1.63497818	          0.97692478	         -0.34511581	          1.44869137	          1.02058756	         -0.20076357	          1.44224262	          1.01846647	         -0.28546003	          1.54953027	          0.47859773	         -0.12833998	          1.70501721	          0.49357435	         -0.37590918	          1.52822530	          0.49292725	         -0.24644671	          1.72004664	          0.48735711	         -0.26401225	          1.42798138	          0.07631718	         -0.15399744	          1.49801433	          0.13454904	         -0.33345303	          1.43195379	          0.07959338	         -0.22351003	          1.51615798	          0.14321682	         -0.26690319	          1.52562642	          1.46783113	         -0.23522812	          1.62163615	          1.39258170	         -0.15550604	          1.62142622	          1.39957690	         -0.31109717	          1.60921729	          1.39770567	         -0.23717789	          1.64470506	          1.19644737	         -0.25302595	          1.58237433	          0.57697737	         -0.04459733	          1.81207836	          0.65470713	         -0.35237247	          1.60593891	          0.63729888	         -0.11307810	          1.71681070	          0.68347210	         -0.37934765	          1.59696639	          0.55604738	         -0.13987668	          1.73786998	          0.59825253	         -0.37140763	          1.46204042	          0.14384325	         -0.08546055	          1.64624894	          0.18275143	         -0.31161568	          1.45938802	          0.20415616	         -0.14488618	          1.61302423	          0.25825685	         -0.31464973	          1.55059934	          0.04160694	         -0.19411483	          1.60751271	          0.06981822	         -0.30178818	
          0.80000001	          1.65366983	          0.97667193	         -0.24273799	         -0.22600269	         -0.71432447	          2.84472394	         -2.96901321	          0.56324905	          3.17161465	        -12.67332745	         11.19935703	          0.00000000	          0.00000000	         23.46035004	         -2.26753879	         -2.31343436	        -50.32582855	          9.34445190	          0.00000000	          0.00000000	        -18.14070702	          3.42232156	         -1.96781957	         -0.09559528	        489.18390763	        -19.66203139	          1.56345044	          0.00000000	         -0.19285017	          0.00000000	          0.00000000	          0.00000000	          0.86170935	          0.00000000	         -0.29644861	          0.00000000	          1.22842236	          0.00000000	          0.00000000	          0.00000000	          0.00000000	          1.56992221	          0.89593881	         -0.24113971	          1.57009399	          0.88672280	         -0.18495394	          1.56464398	          0.88654596	         -0.29138431	          1.54705203	          0.47903535	         -0.18711610	          1.73179460	          0.49434301	         -0.31621110	          1.43156040	          0.07670368	         -0.19194275	          1.54416883	          0.12421643	         -0.29454020	          1.65366983	          0.97667193	         -0.24273799	          1.65891075	          0.97684199	         -0.14039204	          1.64842892	          0.97650188	         -0.34508395	          1.46090984	          1.02013898	         -0.20172770	          1.45506775	          1.01796997	         -0.28660318	          1.55333984	          0.47836617	         -0.12795307	          1.72562599	          0.49545953	         -0.37537995	          1.53269279	          0.49278507	         -0.24565777	          1.73694265	          0.49000561	         -0.26312053	          1.42835331	          0.07717009	         -0.15408121	          1.53519273	          0.12651844	         -0.33293784	          1.43178880	          0.08063544	         -0.22381178	          1.55314422	          0.13601503	         -0.26639146	          1.53898394	          1.46728849	         -0.23537140	          1.63480043	          1.39177430	         -0.15547568	          1.63479781	          1.39870799	         -0.31115061	          1.62249386	          1.39689565	         -0.23720516	          1.65751421	          1.19554555	         -0.25292552	          1.58802891	          0.57663596	         -0.04414412	          1.82904112	          0.65923399	         -0.34913129	          1.61244130	          0.63636881	         -0.11267859	          1.73422480	          0.68622720	         -0.37839192	          1.60231447	          0.55523223	         -0.13923736	          1.75611556	          0.60113984	         -0.36997280	          1.46282840	          0.14436559	         -0.08542653	          1.68080688	          0.18195026	         -0.31125423	          1.46079469	          0.20478204	         -0.14487936	          1.64410794	          0.25574610	         -0.31422287	          1.55088902	          0.04170696	         -0.19405966	          1.64805639	          0.06785449	         -0.30178010	
